<svg width="48" height="48" viewBox="0 0 48 48" fill="none" xmlns="http://www.w3.org/2000/svg">
<path d="M33.2585 7.61495V7.58683L27.2115 1.53985C25.136 -0.488806 21.6381 -0.602996 19.449 1.73673C18.8933 2.33876 18.5924 2.94309 18.2127 3.70547L18.2126 3.70579L18.2121 3.7067C18.1321 3.86745 18.0485 4.03529 17.9583 4.21154L30.6709 16.9243C30.8215 16.849 30.967 16.778 31.1081 16.7091L31.1082 16.709C31.872 16.3361 32.5085 16.0253 33.1462 15.4336C35.3205 13.3314 35.4794 9.83561 33.2585 7.61495Z" fill="#044CD7"/>
<path d="M22.0648 28.7369L28.3366 22.4649C34.0961 27.838 38.3853 31.3979 40.7052 33.3234L40.7053 33.3234C40.8227 33.4209 40.935 33.5141 41.0423 33.6032L33.5998 41.0449C32.5199 39.7491 30.6746 37.8152 28.1846 35.2059C26.4454 33.3834 24.3917 31.2313 22.0648 28.7369Z" fill="#044CD7"/>
<path d="M7.03126 39.5614H18.2813C22.1594 39.5614 25.3125 42.7158 25.3125 46.5927C25.3125 47.37 24.6836 47.9989 23.9063 47.9989H1.40625C0.62897 47.9989 0 47.37 0 46.5927C0 42.7158 3.1531 39.5614 7.03126 39.5614Z" fill="#044CD7"/>
<path d="M3.756 18.3948C3.87446 18.3352 3.99493 18.2746 4.11732 18.2116C4.86929 18.9099 16.3829 30.445 16.8017 30.896C16.7501 30.9993 16.7007 31.0993 16.6527 31.1964C16.2529 32.0061 15.9498 32.6197 15.2547 33.3148C13.1442 35.4256 9.71805 35.675 7.54848 33.5678L1.5301 27.521C-0.709871 25.2293 -0.358402 21.7376 1.72679 19.7866C2.30618 19.1243 2.98919 18.7806 3.756 18.3948Z" fill="#044CD7"/>
<path d="M16.4361 6.65233L6.50822 16.6085L18.4332 28.5335C20.1997 26.7667 21.5493 25.4165 22.5985 24.3668C25.3046 21.6594 26.0129 20.9508 26.7253 20.2461C26.9776 19.9965 27.2305 19.7474 27.5728 19.4101C27.7979 19.1884 28.0616 18.9286 28.3892 18.6055L16.4361 6.65233Z" fill="#044CD7"/>
<path d="M43.4576 35.1649C45.6174 36.0129 47.2784 37.8574 47.816 40.117C48.3506 42.3108 47.7034 44.4766 46.1008 46.1076C44.5532 47.655 42.5095 48.3561 40.1098 47.8234C37.8507 47.2854 35.9817 45.6251 35.1563 43.4656L43.4576 35.1649Z" fill="#044CD7"/>
</svg>
