<svg width="48" height="47" viewBox="0 0 48 47" fill="none" xmlns="http://www.w3.org/2000/svg">
<path d="M48 15.6634C48 14.8497 47.8352 14.0784 47.5095 13.387C47.4951 13.3334 47.4933 13.2796 47.476 13.226L44.1758 2.94191C43.6421 1.29223 41.9118 0 40.2307 0H7.84332C6.16197 0 4.42681 1.29223 3.89287 2.94412L0.58909 13.2242C0.571373 13.2787 0.5603 13.3331 0.545684 13.3876C0.219912 14.0788 0 14.8499 0 15.6634C0 17.7566 1.15249 19.5722 2.92419 20.4536V43.035C2.92419 45.2304 4.75613 46.95 7.00021 46.95H41.0733C43.3176 46.95 45.0018 45.2304 45.0018 43.035V20.4538C46.7738 19.5722 48 17.7566 48 15.6634ZM32.1572 40.3064V28.3474C32.1572 26.7573 30.9421 25.4684 29.352 25.4684H18.9432C17.3531 25.4684 15.9905 26.7573 15.9905 28.3474V40.3064H9.56806V18.9271C9.78953 18.7297 9.89539 18.5216 10.0192 18.3039C10.9416 19.9254 12.7029 21.0221 14.698 21.0221C16.6932 21.0221 18.4452 19.9254 19.3676 18.3039C20.29 19.9254 22.0373 21.0221 24.0324 21.0221C26.0276 21.0221 27.7727 19.9252 28.6951 18.3037C29.6175 19.9252 31.3613 21.0221 33.3567 21.0221C35.3518 21.0221 37.0582 19.9252 37.9806 18.3037C38.1044 18.5213 38.3584 18.7295 38.3584 18.9268V40.3062H32.1572V40.3064Z" fill="#044CD7"/>
</svg>
