<svg width="48" height="32" viewBox="0 0 48 32" fill="none" xmlns="http://www.w3.org/2000/svg">
<path d="M31.3043 7.30437C31.3043 11.3385 28.0341 14.6088 24 14.6088C19.9658 14.6088 16.6956 11.3385 16.6956 7.30437C16.6956 3.27028 19.9658 0 24 0C28.0341 0 31.3043 3.27028 31.3043 7.30437Z" fill="#044CD7"/>
<path d="M43.8261 13.5652C43.8261 16.4467 41.4902 18.7826 38.6087 18.7826C35.7272 18.7826 33.3913 16.4467 33.3913 13.5652C33.3913 10.6838 35.7272 8.34788 38.6087 8.34788C41.4902 8.34788 43.8261 10.6838 43.8261 13.5652Z" fill="#044CD7"/>
<path d="M9.53952 18.7826C12.421 18.7826 14.7569 16.4467 14.7569 13.5652C14.7569 10.6838 12.421 8.34788 9.53952 8.34788C6.65804 8.34788 4.32216 10.6838 4.32216 13.5652C4.32216 16.4467 6.65804 18.7826 9.53952 18.7826Z" fill="#044CD7"/>
<path d="M10.4347 30.2609C10.4347 22.7812 16.5203 16.6957 24 16.6957C31.4796 16.6957 37.5652 22.7812 37.5652 30.2609C37.5652 30.8369 37.0977 31.3044 36.5217 31.3044H11.4782C10.9022 31.3044 10.4347 30.8369 10.4347 30.2609Z" fill="#044CD7"/>
<path d="M11.3384 21.095C10.6998 20.9593 10.0507 20.8696 9.3913 20.8696C4.21354 20.8696 0 25.0832 0 30.2609C0 30.8369 0.467492 31.3044 1.04351 31.3044H8.53981C8.42292 30.9768 8.34779 30.6283 8.34779 30.2609C8.34779 26.8362 9.46643 23.6745 11.3384 21.095Z" fill="#044CD7"/>
<path d="M36.6616 21.095C37.3002 20.9593 37.9493 20.8696 38.6087 20.8696C43.7864 20.8696 48 25.0832 48 30.2609C48 30.8369 47.5325 31.3044 46.9565 31.3044H39.4602C39.5771 30.9767 39.6522 30.6283 39.6522 30.2609C39.6522 26.8362 38.5336 23.6745 36.6616 21.095Z" fill="#044CD7"/>
</svg>
