<svg width="40" height="48" viewBox="0 0 40 48" fill="none" xmlns="http://www.w3.org/2000/svg">
<path d="M24.7863 17.6023C25.2295 17.6023 25.6613 17.7799 25.9711 18.0896C26.6247 18.7435 26.6245 19.8065 25.9714 20.4596L18.9199 27.511C18.6046 27.8252 18.1843 27.9977 17.7348 27.9977C17.2856 27.9977 16.8651 27.8253 16.5512 27.5122L13.3406 24.3013C13.0244 23.9852 12.8499 23.5643 12.8499 23.1164C12.8499 22.6689 13.0243 22.2479 13.3408 21.9313C13.6576 21.6148 14.0782 21.4408 14.5255 21.4408C14.9723 21.4408 15.3927 21.6145 15.7091 21.93L17.735 23.9561L23.6016 18.0896C23.9163 17.7752 24.3368 17.6023 24.7863 17.6023Z" fill="#044CD7"/>
<path fill-rule="evenodd" clip-rule="evenodd" d="M38.7197 9.18431C38.9952 9.31824 39.1801 9.58716 39.2066 9.89241C39.2305 10.1667 39.7666 16.7025 37.7014 24.6853C36.485 29.3877 34.6116 33.6061 32.1337 37.2234C29.0258 41.7602 24.9583 45.353 20.0445 47.9021C19.9188 47.9674 19.781 48 19.6433 48C19.5056 48 19.3678 47.9674 19.2421 47.9021C14.3281 45.353 10.2609 41.7601 7.15302 37.2234C4.67508 33.6061 2.80174 29.3877 1.58515 24.6853C-0.480157 16.7025 0.0559445 10.1666 0.079807 9.89228C0.106217 9.58703 0.291218 9.31824 0.566709 9.18418L19.2619 0.0878749C19.5025 -0.0292916 19.7838 -0.0292916 20.0244 0.0878749L38.7197 9.18431ZM8.5597 22.6594C8.5597 28.7709 13.5317 33.7428 19.6432 33.7428C25.7546 33.7428 30.7266 28.7709 30.7266 22.6594C30.7266 16.5479 25.7546 11.5759 19.6432 11.5759C13.5317 11.5759 8.5597 16.5479 8.5597 22.6594Z" fill="#044CD7"/>
</svg>
