<svg width="48" height="48" viewBox="0 0 48 48" fill="none" xmlns="http://www.w3.org/2000/svg">
<path d="M5.15625 0H42.8438C45.6869 0 48 2.31309 48 5.15625V31.875H41.7908C42.1166 30.4985 42.2812 29.0861 42.2812 27.6562C42.2812 23.0768 40.58 18.6956 37.4907 15.3197C34.8563 12.4405 31.4076 10.5001 27.6318 9.73847L28.5696 7.59488C28.9761 6.66581 28.2953 5.625 27.2812 5.625H20.7188C19.7046 5.625 19.0239 6.66581 19.4304 7.59488L20.3682 9.73847C16.5924 10.5001 13.1438 12.4405 10.5093 15.3197C7.42003 18.6956 5.71875 23.0768 5.71875 27.6562C5.71875 29.0861 5.88338 30.4985 6.20915 31.875H0V5.15625C0 2.31309 2.3131 0 5.15625 0Z" fill="#044CD7"/>
<path d="M14.0833 15.7508L20.1253 21.7929C20.863 21.3038 21.6973 20.9492 22.5938 20.7666V14.8255L21.526 12.3851C18.7019 12.8341 16.1569 14.0263 14.0833 15.7508Z" fill="#044CD7"/>
<path d="M8.59415 26.25H17.1103C17.2929 25.3537 17.6476 24.5194 18.1367 23.7817L12.0945 17.7394C10.1403 20.0887 8.88018 23.0287 8.59415 26.25Z" fill="#044CD7"/>
<path fill-rule="evenodd" clip-rule="evenodd" d="M24 31.875C21.6738 31.875 19.7812 29.9825 19.7812 27.6562C19.7812 25.33 21.6738 23.4375 24 23.4375C26.3262 23.4375 28.2188 25.33 28.2188 27.6562C28.2188 29.9825 26.3262 31.875 24 31.875ZM25.4062 27.6562C25.4062 26.8796 24.7766 26.25 24 26.25C23.2234 26.25 22.5938 26.8796 22.5938 27.6562C22.5938 28.4329 23.2234 29.0625 24 29.0625C24.7766 29.0625 25.4062 28.4329 25.4062 27.6562Z" fill="#044CD7"/>
<path d="M8.59499 29.0625C8.68105 30.0161 8.85411 30.9563 9.11428 31.875H18.3788C17.7634 31.057 17.3219 30.1011 17.1102 29.0625H8.59499Z" fill="#044CD7"/>
<path d="M35.9056 17.7394L29.8634 23.7817C30.3525 24.5194 30.7072 25.3537 30.8898 26.25H39.4059C39.1198 23.0287 37.8597 20.0887 35.9056 17.7394Z" fill="#044CD7"/>
<path d="M38.8857 31.875H29.6212C30.2366 31.057 30.6781 30.1011 30.8898 29.0625H39.405C39.3189 30.0161 39.1459 30.9563 38.8857 31.875Z" fill="#044CD7"/>
<path d="M25.4062 14.8254V20.7665C26.3027 20.9492 27.137 21.3037 27.8747 21.7928L33.9167 15.7507C31.843 14.0262 29.2981 12.834 26.474 12.3849L25.4062 14.8254Z" fill="#044CD7"/>
<path d="M31.0312 45.1875H34.3125C35.0891 45.1875 35.7188 45.8171 35.7188 46.5938C35.7188 47.3704 35.0891 48 34.3125 48H13.6875C12.9109 48 12.2812 47.3704 12.2812 46.5938C12.2812 45.8171 12.9109 45.1875 13.6875 45.1875H16.9688V43.125H31.0312V45.1875Z" fill="#044CD7"/>
<path d="M0 35.1562C0 37.9994 2.3131 40.3125 5.15625 40.3125H42.8438C45.6869 40.3125 48 37.9994 48 35.1562V34.6875H0V35.1562Z" fill="#044CD7"/>
<path d="M22.869 8.4375H25.131L24 11.0228L22.869 8.4375Z" fill="#044CD7"/>
</svg>
