<svg width="48" height="48" viewBox="0 0 48 48" fill="none" xmlns="http://www.w3.org/2000/svg">
<path d="M47.812 0.151125C47.7667 0.105844 47.6609 0 47.3133 0C45.5649 0 42.3788 2.12156 39.1929 4.92235L42.9815 8.71097C46.8725 4.28203 48.6045 0.944719 47.812 0.151125Z" fill="#044CD7"/>
<path d="M15.4783 14.1443C14.7022 14.1443 14.0716 14.7748 14.0716 15.551C14.0716 16.3271 14.7021 16.9577 15.4783 16.9577C16.2545 16.9577 16.885 16.3271 16.885 15.551C16.885 14.7748 16.2545 14.1443 15.4783 14.1443Z" fill="#044CD7"/>
<path d="M9.85153 22.5844C9.07539 22.5844 8.44482 23.2149 8.44482 23.9911C8.44482 24.7673 9.07539 25.3978 9.85153 25.3978C10.6277 25.3978 11.2583 24.7673 11.2583 23.9911C11.2583 23.2149 10.6277 22.5844 9.85153 22.5844Z" fill="#044CD7"/>
<path d="M11.2581 35.2447C11.2581 34.4685 11.8887 33.838 12.6649 33.838C13.441 33.838 14.0716 34.4685 14.0716 35.2447C14.0716 36.0208 13.441 36.6514 12.6649 36.6514C11.8887 36.6514 11.2581 36.0208 11.2581 35.2447Z" fill="#044CD7"/>
<path fill-rule="evenodd" clip-rule="evenodd" d="M39.4086 16.3568C40.4725 18.1979 41.251 20.1677 41.7026 22.2508C42.2673 24.8594 42.3565 27.4792 41.9692 30.0384C41.6313 32.2844 40.0638 34.1267 37.8796 34.8451C35.6227 35.5855 33.1967 35.0114 31.5344 33.3491C30.4712 32.2858 28.6195 32.2858 27.5561 33.3491C26.456 34.4492 26.456 36.2273 27.5561 37.3274C29.2197 38.9909 29.7925 41.4224 29.0521 43.6726C27.8543 47.3141 24.7106 47.9985 21.1023 47.9985C19.5609 47.9985 18.0072 47.8309 16.4577 47.4957C8.36645 45.7416 1.90857 39.0982 0.385133 30.963C-0.936271 23.9048 1.17789 16.9854 6.18516 11.9782C13.2234 4.93603 23.7109 4.02216 31.6548 8.59885C29.3795 11.2148 26.6698 14.8273 26.3578 17.5425C24.5053 17.1237 22.4551 17.5907 21.0734 18.9732C20.4098 19.6354 19.9195 20.4569 19.6557 21.3498C19.2299 22.788 17.9015 23.887 16.2723 24.1494C15.7516 24.2333 15.3203 24.6027 15.1582 25.1042C14.8916 25.9242 15.3036 26.3362 15.8324 26.8649L15.8986 26.9312C17.6529 28.6854 19.9841 29.6512 22.4636 29.6512C24.9445 29.6512 27.2758 28.6854 29.0287 26.9312C30.3633 25.5965 30.9931 23.6749 30.5066 21.6398C33.2241 21.3021 36.7441 18.6854 39.4086 16.3568ZM19.6984 15.6446C19.6984 13.3176 17.8054 11.4246 15.4783 11.4246C13.1512 11.4246 11.2583 13.3177 11.2583 15.6446C11.2583 17.9717 13.1512 19.8647 15.4783 19.8647C17.8054 19.8647 19.6984 17.9717 19.6984 15.6446ZM9.85153 19.8648C7.52446 19.8648 5.63147 21.7578 5.63147 24.0849C5.63147 26.4119 7.52446 28.3049 9.85153 28.3049C12.1786 28.3049 14.0716 26.4119 14.0716 24.0849C14.0716 21.7578 12.1786 19.8648 9.85153 19.8648ZM8.44482 35.3384C8.44482 37.6655 10.3378 39.5585 12.6649 39.5585C14.9919 39.5585 16.885 37.6654 16.885 35.3384C16.885 33.0113 14.9919 31.1184 12.6649 31.1184C10.3378 31.1184 8.44482 33.0113 8.44482 35.3384Z" fill="#044CD7"/>
<path d="M27.0395 20.8701C25.9763 19.8067 24.1245 19.8067 23.0613 20.87C22.7233 21.2065 22.4871 21.6049 22.3539 22.0541V22.0555C21.873 23.6765 20.7535 25.042 19.2808 25.9103C21.7054 27.2813 25.0148 26.8733 27.0396 24.8484C28.1395 23.7483 28.1395 21.9702 27.0395 20.8701Z" fill="#044CD7"/>
<path d="M36.8885 7.06051C36.9676 6.98482 37.0467 6.90913 37.1255 6.83335L41.0715 10.7795C40.9647 10.8901 40.8617 10.9994 40.7588 11.1087C40.5927 11.285 40.4267 11.4611 40.245 11.6427C36.9816 14.9062 32.608 18.4059 30.3149 18.7898C29.7423 18.9904 29.0873 18.7399 29.0835 17.9686C29.0739 16.169 32.0961 11.8362 36.2667 7.66425C36.4688 7.46221 36.6786 7.2614 36.8885 7.06051Z" fill="#044CD7"/>
</svg>
