<svg width="27" height="48" viewBox="0 0 27 48" fill="none" xmlns="http://www.w3.org/2000/svg">
<path d="M11.3166 0L17.6343 6.31936L11.3166 12.639V8.21198H5.65022V4.44534H11.3166V0Z" fill="#044CD7"/>
<path d="M22.7032 25.3264C23.28 25.9031 23.6221 26.6236 23.7447 27.3719L26.1495 36.4301C26.481 37.6832 26.1722 39.0683 25.192 40.0483L20.812 44.4283C16.0498 49.1906 8.33123 49.1906 3.56901 44.4283C1.26254 42.1219 0.0840563 39.1215 0.0134203 36.0998L0 36.1105V17.8634C0 17.1069 0.61397 16.4932 1.37177 16.4944C1.47841 16.4944 1.58221 16.4998 1.67946 16.5251C5.0301 17.2896 7.53233 20.2818 7.53233 23.8641L7.53115 25.7485L20.2022 13.0774C21.667 11.6124 24.064 11.6124 25.529 13.0774C26.994 14.5423 26.994 16.9393 25.529 18.4043L19.6695 24.2638C20.7523 24.1531 21.8736 24.4967 22.7032 25.3264Z" fill="#044CD7"/>
</svg>
