<svg width="20" height="20" viewBox="0 0 20 20" fill="none" xmlns="http://www.w3.org/2000/svg">
<path d="M10 0C8.02219 0 6.08879 0.58649 4.4443 1.6853C2.79981 2.78412 1.51809 4.3459 0.761209 6.17317C0.00433284 8.00043 -0.193701 10.0111 0.192152 11.9509C0.578004 13.8907 1.53041 15.6725 2.92894 17.0711C4.32746 18.4696 6.10929 19.422 8.0491 19.8079C9.98891 20.1937 11.9996 19.9957 13.8268 19.2388C15.6541 18.4819 17.2159 17.2002 18.3147 15.5557C19.4135 13.9112 20 11.9778 20 10C19.997 7.34877 18.9424 4.80699 17.0677 2.93228C15.193 1.05758 12.6512 0.0030331 10 0ZM15.207 7.61328L9.0195 13.8008C8.92667 13.8937 8.81645 13.9673 8.69514 14.0176C8.57382 14.0679 8.44379 14.0938 8.31248 14.0938C8.18116 14.0938 8.05113 14.0679 7.92981 14.0176C7.8085 13.9673 7.69828 13.8937 7.60544 13.8008L4.793 10.9883C4.60743 10.8004 4.50374 10.5467 4.50457 10.2826C4.50539 10.0185 4.61067 9.76543 4.79741 9.57868C4.98415 9.39194 5.23719 9.28665 5.50129 9.28581C5.76538 9.28498 6.01908 9.38866 6.207 9.57422L8.31248 11.6797L13.793 6.19922C13.9809 6.01366 14.2346 5.90998 14.4987 5.91081C14.7628 5.91165 15.0159 6.01694 15.2026 6.20368C15.3893 6.39043 15.4946 6.64348 15.4954 6.90757C15.4963 7.17167 15.3926 7.42537 15.207 7.61328Z" fill="url(#paint0_linear)"/>
<defs>
<linearGradient id="paint0_linear" x1="0" y1="0" x2="20" y2="20" gradientUnits="userSpaceOnUse">
<stop stop-color="#044CD7"/>
<stop offset="1" stop-color="#B11CC9"/>
</linearGradient>
</defs>
</svg>
